<?xml version="1.0" standalone="no"?>
<!DOCTYPE svg PUBLIC "-//W3C//DTD SVG 20010904//EN"
 "http://www.w3.org/TR/2001/REC-SVG-20010904/DTD/svg10.dtd">
<svg version="1.0" xmlns="http://www.w3.org/2000/svg"
 width="260.000000pt" height="260.000000pt" viewBox="0 0 260.000000 260.000000"
 preserveAspectRatio="xMidYMid meet">
<metadata>
Created by potrace 1.11, written by Peter Selinger 2001-2013
</metadata>
<g transform="translate(0.000000,260.000000) scale(0.100000,-0.100000)"
fill="#000000" stroke="none">
<path d="M711 2584 c-10 -8 -21 -10 -25 -6 -4 3 -4 -1 0 -11 6 -17 7 -17 21 0
8 10 11 12 7 4 -4 -9 0 -19 11 -28 11 -7 14 -13 9 -13 -6 0 -15 5 -22 12 -11
11 -13 9 -28 -40 -3 -10 -8 -10 -25 -1 -19 10 -21 9 -16 -5 9 -23 0 -20 -14 5
-9 17 -8 20 2 14 7 -5 10 -4 6 2 -8 12 20 27 42 24 13 -2 13 0 1 14 -9 11 -16
13 -18 6 -2 -6 -8 -9 -13 -5 -5 3 -12 -2 -15 -10 -3 -9 -9 -14 -13 -11 -11 6
-7 -37 4 -55 8 -13 7 -13 -10 0 -17 14 -17 13 -11 -10 5 -17 4 -21 -2 -11 -8
11 -10 11 -15 0 -2 -8 -4 -2 -3 13 0 14 5 24 10 20 5 -3 6 1 1 8 -5 9 -4 11 3
6 8 -5 10 -1 5 9 -4 12 -8 13 -13 5 -4 -6 -9 -10 -11 -9 -2 2 -14 -3 -26 -12
-23 -16 -25 -50 -4 -57 10 -3 10 0 1 18 -10 18 -9 21 1 15 8 -6 10 -4 4 5 -6
9 -4 11 5 5 9 -6 11 -4 5 5 -5 9 -4 11 4 6 6 -4 8 -13 4 -19 -4 -7 -8 -19 -8
-27 0 -9 -9 -15 -25 -15 -14 1 -29 -5 -33 -12 -4 -7 -15 -13 -24 -13 -9 0 -13
-3 -10 -7 4 -3 -2 -13 -13 -20 -11 -8 -17 -19 -14 -25 4 -7 2 -8 -5 -4 -9 6
-9 11 1 24 11 13 10 15 -4 9 -11 -4 -16 -1 -14 6 1 7 1 9 -1 4 -3 -4 -9 -5
-14 -1 -5 3 -14 -6 -20 -20 -7 -14 -16 -23 -20 -20 -5 3 -6 -3 -2 -12 4 -11 3
-15 -5 -10 -6 4 -47 -30 -96 -78 -65 -65 -84 -90 -81 -106 3 -16 0 -20 -10
-16 -14 5 -42 -30 -37 -47 1 -4 -5 -10 -13 -13 -8 -4 -15 -12 -15 -20 0 -8 -6
-14 -12 -14 -9 0 -8 -4 2 -10 14 -9 7 -14 -13 -11 -5 1 -6 -3 -3 -8 4 -5 -5
-21 -19 -35 -14 -15 -23 -31 -20 -36 3 -6 1 -10 -5 -10 -7 0 -10 -6 -7 -12 2
-7 -2 -21 -11 -30 -17 -20 -26 -158 -11 -158 6 0 7 5 3 12 -5 7 -3 8 6 3 10
-6 10 -10 -2 -19 -13 -10 -15 -65 -16 -394 -1 -290 2 -382 11 -382 8 0 8 -3 2
-8 -6 -4 -11 -22 -12 -40 -2 -30 0 -32 15 -20 16 12 16 11 2 -6 -22 -28 -20
-115 3 -128 16 -8 17 -7 8 11 -8 14 -8 22 1 27 7 4 8 3 4 -4 -4 -7 -2 -12 3
-12 6 0 10 -3 9 -8 -1 -4 2 -17 6 -30 7 -22 8 -23 22 -5 14 17 15 17 6 -2 -9
-21 9 -71 21 -58 4 3 7 4 7 1 0 -3 -8 -12 -17 -19 -14 -12 -16 -12 -8 0 5 8 4
12 -1 9 -5 -3 -18 6 -28 21 l-20 26 22 -19 c12 -11 22 -14 22 -9 0 17 -28 35
-42 27 -11 -6 -11 -5 0 8 10 13 9 16 -8 21 -17 4 -19 3 -9 -9 6 -8 8 -14 5
-14 -4 0 3 -15 16 -33 13 -17 22 -34 20 -37 -1 -3 2 -5 7 -5 5 0 13 -3 17 -8
4 -4 1 -7 -7 -7 -11 0 -11 -2 1 -10 8 -5 11 -10 7 -10 -4 0 -3 -9 3 -19 6 -13
17 -17 30 -14 12 3 18 8 15 12 -6 6 -10 7 -37 10 -9 1 -8 4 2 11 8 5 10 10 4
10 -6 0 -11 7 -11 15 0 8 4 12 8 9 4 -2 9 0 11 6 2 6 8 6 18 0 13 -8 12 -10
-2 -10 -10 0 -18 -5 -18 -11 0 -5 5 -7 10 -4 6 4 9 3 8 -2 -4 -11 27 -54 35
-48 4 3 5 2 2 -2 -3 -3 2 -16 10 -29 12 -19 12 -23 0 -28 -10 -3 -12 0 -8 11
5 12 2 15 -9 11 -8 -4 -15 -1 -15 8 0 7 5 10 10 7 6 -3 7 -1 4 5 -8 12 -43 9
-40 -4 2 -5 11 -18 20 -29 10 -11 16 -24 15 -28 -1 -5 2 -6 7 -3 5 3 14 -7 20
-22 7 -15 23 -40 37 -56 20 -23 28 -26 37 -16 9 10 9 11 -2 5 -9 -5 -12 -4 -8
2 4 6 0 19 -8 29 -15 19 -15 19 -8 0 4 -14 3 -17 -6 -12 -7 5 -10 14 -7 22 3
8 2 13 -2 11 -4 -1 -7 3 -7 8 0 6 3 9 8 7 4 -1 7 2 7 7 0 14 -28 21 -33 8 -2
-6 -7 -2 -11 8 -4 11 -4 16 0 12 4 -4 14 -1 22 6 13 9 14 9 8 0 -4 -7 -2 -14
3 -14 6 -1 15 -2 20 -3 5 0 13 -5 18 -10 5 -5 3 -6 -5 -2 -15 9 -12 -19 6 -51
13 -24 30 -26 47 -6 7 9 14 10 25 2 13 -9 13 -10 -2 -6 -9 3 -19 -1 -22 -9 -8
-22 -7 -26 4 -19 6 4 10 3 9 -2 -3 -20 2 -34 11 -28 5 3 10 1 10 -5 0 -6 5 -8
10 -5 6 4 9 1 8 -7 -2 -8 5 -12 17 -10 11 2 16 -1 10 -5 -17 -14 -17 -36 0
-30 10 4 15 1 15 -11 1 -15 2 -15 15 2 12 16 15 17 15 4 0 -18 -27 -32 -35
-18 -3 5 -12 7 -20 4 -10 -4 -13 0 -10 15 2 14 0 19 -7 15 -7 -5 -8 -2 -3 6 6
9 4 11 -5 5 -9 -6 -11 -4 -5 5 5 9 4 11 -3 6 -7 -4 -20 -2 -29 4 -15 9 -14 10
7 5 l25 -6 -25 15 c-14 8 -28 12 -32 10 -5 -3 -8 0 -8 6 0 7 7 10 18 6 14 -5
14 -4 -2 9 -15 12 -22 12 -27 3 -10 -15 37 -68 60 -68 8 0 11 -3 8 -7 -12 -11
34 -52 51 -46 10 4 13 2 8 -5 -7 -11 50 -73 63 -69 4 1 19 -10 35 -25 24 -21
32 -24 47 -15 10 6 15 15 12 20 -3 5 -9 4 -13 -3 -5 -8 -9 -7 -14 5 -4 10 -12
15 -22 11 -10 -4 -13 -2 -8 6 5 7 3 8 -6 3 -8 -5 -11 -4 -6 3 4 6 13 9 21 5
11 -4 14 0 9 13 -4 14 -3 16 4 5 5 -7 16 -10 23 -7 8 4 6 1 -4 -7 -12 -10 -14
-17 -8 -22 6 -3 11 -3 11 1 0 4 9 -1 20 -11 22 -20 28 -8 8 15 -7 8 -3 6 10
-5 17 -14 19 -21 10 -27 -10 -6 -10 -8 2 -9 8 -1 19 -1 23 0 5 1 6 -3 3 -8 -4
-5 -2 -12 3 -15 5 -4 12 2 14 11 3 13 5 12 6 -5 0 -13 6 -20 11 -17 6 3 10 1
10 -5 0 -6 4 -8 10 -5 5 3 7 0 5 -7 -7 -17 43 -22 62 -7 7 7 16 10 19 7 9 -10
-46 -39 -59 -31 -20 12 -36 12 -44 0 -3 -7 -2 -9 2 -4 5 4 17 0 27 -10 10 -9
18 -13 18 -8 0 4 7 2 15 -5 8 -7 15 -9 15 -4 0 5 5 2 10 -6 7 -11 10 -11 10
-2 0 7 5 10 10 7 16 -10 11 1 -7 16 -9 8 -14 9 -10 3 3 -6 0 -11 -8 -11 -11 0
-12 4 -4 14 6 7 15 11 19 8 5 -3 10 1 13 7 2 7 8 9 13 5 5 -4 2 -12 -5 -16 -8
-6 -9 -11 -3 -15 6 -3 13 -2 17 4 3 5 11 10 16 10 6 0 -1 -10 -15 -23 l-25
-24 486 0 c279 0 480 3 472 8 -8 5 -9 9 -3 9 6 0 14 -3 18 -7 10 -10 126 -11
132 -1 3 4 10 6 15 3 5 -4 9 -1 9 6 0 7 3 9 6 6 4 -3 16 -1 28 5 11 7 24 11
29 10 4 -1 7 3 7 9 0 5 4 8 9 5 5 -3 12 1 15 9 3 8 9 14 13 13 11 -2 63 24 63
31 0 4 -10 8 -22 8 -19 2 -20 0 -8 -8 13 -9 12 -10 -2 -5 -10 3 -20 0 -24 -6
-4 -7 -10 -5 -16 6 -5 9 -13 14 -19 11 -5 -4 -9 -1 -9 4 0 14 13 14 27 0 6 -6
17 -8 24 -3 9 5 8 9 -7 15 -12 5 -4 7 21 4 22 -2 41 -9 43 -14 2 -6 13 -2 25
9 11 11 27 20 34 20 12 0 17 13 14 33 0 4 3 7 7 7 5 0 9 7 9 15 0 9 -5 14 -11
12 -6 -2 -11 -13 -11 -25 0 -12 -4 -22 -9 -21 -5 0 -13 -5 -17 -13 -7 -10 -9
-10 -9 0 0 7 -5 10 -11 6 -8 -4 -7 -9 2 -16 11 -7 10 -8 -4 -4 -13 4 -16 2
-11 -7 5 -8 2 -7 -9 2 -18 14 -23 26 -8 16 5 -3 12 -1 16 5 3 5 1 10 -4 10 -6
0 -11 5 -11 11 0 8 5 8 15 -1 15 -13 21 -2 8 16 -5 5 0 1 10 -9 9 -11 17 -18
18 -16 8 42 8 49 -3 43 -7 -4 -8 -3 -4 4 4 6 13 9 20 6 15 -6 46 21 46 38 0 6
3 9 6 6 3 -4 1 -16 -6 -27 -8 -16 -8 -21 2 -21 8 0 9 -3 3 -8 -14 -10 -17 -32
-5 -32 5 0 10 7 10 16 0 8 4 13 9 10 11 -7 161 135 161 153 0 7 4 9 10 6 6 -4
7 1 3 12 -3 10 -3 15 2 11 9 -8 50 11 41 19 -3 3 2 12 12 19 9 7 17 16 18 21
2 22 17 42 27 36 6 -3 7 -1 3 5 -4 7 -2 12 4 12 7 0 10 6 7 14 -3 8 2 16 14
19 13 4 17 10 12 23 -4 12 -3 15 5 10 17 -10 15 -1 -4 14 -8 8 -14 9 -12 4 2
-5 -1 -10 -6 -11 -14 -2 -25 -25 -21 -45 3 -12 0 -16 -7 -12 -7 5 -8 2 -3 -6
6 -9 4 -11 -5 -5 -9 6 -11 4 -5 -5 5 -9 4 -11 -3 -6 -8 5 -10 1 -6 -9 5 -12 2
-16 -11 -13 -10 2 -20 -3 -23 -11 -3 -8 0 -11 6 -7 6 3 14 1 18 -5 5 -8 3 -9
-6 -4 -9 6 -11 4 -5 -6 7 -11 5 -11 -10 1 -17 13 -18 13 -13 0 6 -17 -10 -44
-30 -48 -6 -1 -12 2 -12 8 0 5 8 10 18 10 16 1 16 1 0 14 -10 7 -18 19 -18 27
0 8 6 6 15 -7 11 -15 14 -16 15 -4 0 9 15 31 34 50 19 19 32 38 29 43 -2 4 2
14 9 22 29 32 38 45 38 52 0 5 4 8 9 8 5 0 13 3 17 8 4 4 2 7 -5 7 -7 0 -10 4
-6 9 3 5 -3 12 -12 15 -15 4 -15 5 2 4 35 -1 38 2 24 20 -13 15 -12 16 4 3 19
-15 24 -2 5 17 -7 7 -8 12 -2 12 6 0 16 -12 22 -26 8 -15 8 -23 2 -19 -6 4 -9
1 -8 -7 2 -7 -3 -12 -9 -10 -7 1 -13 -2 -13 -8 0 -5 5 -10 10 -10 6 0 10 -5
10 -11 0 -5 -5 -7 -12 -3 -7 5 -8 3 -3 -6 5 -8 4 -11 -3 -6 -6 3 -13 2 -16 -3
-3 -5 0 -11 7 -14 13 -5 45 36 45 57 0 5 6 13 14 17 10 7 10 9 1 9 -7 0 -13 5
-13 11 0 6 7 8 17 5 10 -4 14 -4 10 0 -4 4 -2 13 3 20 14 16 22 56 9 49 -5 -4
-9 0 -9 7 0 10 -2 10 -9 -1 -5 -8 -8 -24 -7 -36 2 -13 -3 -22 -11 -22 -16 0
-16 0 1 42 10 22 20 33 28 30 11 -4 14 7 14 47 0 29 -4 56 -10 60 -8 5 -8 8 0
8 16 0 16 769 0 789 -8 12 -8 13 2 7 16 -10 13 25 -3 36 -6 5 -5 8 3 8 6 0 12
5 12 11 0 6 -8 8 -17 5 -16 -5 -16 -4 -3 6 10 9 15 30 14 63 -1 28 -2 52 -3
55 -1 3 -4 16 -7 30 -2 14 -10 30 -17 35 -6 6 -13 17 -15 25 -5 22 -23 41 -33
34 -5 -3 -9 0 -9 5 0 6 6 11 13 11 9 0 9 2 -1 9 -8 4 -13 12 -13 17 0 5 -10
20 -21 34 -12 14 -22 27 -23 30 0 3 -4 4 -9 2 -5 -2 -6 4 -3 12 10 24 -18 39
-34 19 -7 -10 -9 -15 -5 -11 10 8 43 -31 38 -45 -1 -5 3 -5 9 -1 8 5 9 3 4 -6
-6 -9 -4 -11 6 -5 11 7 11 5 -1 -10 -12 -15 -12 -17 -1 -10 10 6 12 4 6 -5 -6
-9 -4 -11 5 -5 9 6 11 4 5 -5 -6 -9 -4 -11 5 -5 9 6 11 4 5 -5 -5 -8 -4 -11 2
-7 6 4 10 -1 9 -11 0 -10 5 -16 13 -14 9 2 11 -3 7 -13 -3 -9 -2 -13 4 -10 5
3 7 -4 5 -15 -3 -13 0 -18 7 -14 7 4 8 3 4 -4 -5 -8 -1 -10 11 -6 15 6 15 4
-2 -10 l-20 -16 20 6 c16 5 17 4 5 -5 -21 -15 -33 -13 -26 4 4 10 -2 19 -17
25 -18 7 -19 9 -4 9 10 1 15 6 12 11 -4 6 -11 8 -16 5 -5 -3 -6 2 -2 11 5 13
3 15 -7 9 -9 -5 -11 -4 -6 3 4 7 -5 23 -19 38 -14 14 -24 29 -21 32 3 3 1 11
-5 19 -6 7 -8 13 -4 13 5 0 -2 9 -15 20 -13 11 -28 20 -34 20 -6 0 -4 4 4 10
8 5 11 12 7 16 -3 4 -13 1 -22 -6 -9 -7 -18 -10 -22 -6 -3 3 -1 6 5 6 7 0 11
3 10 8 -3 15 15 42 24 36 6 -4 6 -9 -2 -14 -8 -5 -7 -9 4 -13 29 -11 25 9 -10
46 -20 21 -40 34 -46 30 -7 -4 -9 0 -5 10 3 8 -1 21 -9 27 -8 7 -14 9 -14 4 0
-5 -6 2 -13 16 -8 14 -19 24 -25 23 -7 -2 -12 0 -12 5 0 12 -58 72 -69 72 -6
0 -11 6 -11 13 0 8 -4 7 -10 -3 -8 -12 -10 -10 -10 9 0 13 -3 21 -7 17 -21
-21 8 -58 37 -49 13 4 13 4 0 -7 -13 -10 -12 -11 3 -6 12 4 16 2 11 -6 -5 -7
-3 -8 6 -3 9 6 11 4 5 -5 -6 -9 -4 -11 6 -5 8 5 11 5 7 0 -10 -11 11 -47 23
-40 5 4 9 0 9 -7 0 -11 2 -10 9 0 13 21 23 -15 11 -39 -11 -19 -21 -26 -19
-11 4 24 -4 41 -21 47 -11 3 -20 12 -20 20 0 7 -13 23 -28 34 -22 15 -32 17
-40 9 -9 -9 -15 -9 -24 1 -11 10 -10 11 5 5 13 -5 16 -2 11 10 -3 9 -11 13
-17 9 -6 -4 -7 -1 -2 7 6 10 4 12 -9 7 -10 -4 -15 -3 -11 3 3 6 3 10 -2 10 -4
0 -8 11 -8 25 0 22 1 23 12 9 7 -9 10 -21 6 -27 -3 -5 0 -8 7 -5 8 2 16 10 18
18 3 7 0 10 -7 6 -6 -4 -11 -1 -11 8 0 14 -35 33 -52 28 -5 -1 -8 4 -8 11 0
12 -53 45 -56 35 -1 -1 -11 6 -23 16 -12 11 -21 15 -21 11 0 -5 -7 0 -16 11
-8 10 -13 13 -9 7 3 -7 1 -13 -5 -13 -6 0 -8 -5 -5 -10 4 -6 11 -8 16 -5 5 4
12 -1 15 -10 6 -13 8 -14 15 -3 7 11 9 11 9 -1 0 -7 6 -11 15 -7 8 3 14 2 13
-2 -3 -15 15 -42 24 -36 6 4 5 10 -3 16 -11 8 -11 9 1 5 8 -2 14 -10 13 -16
-3 -10 4 -13 23 -10 8 1 24 -22 24 -33 0 -5 -5 -8 -11 -8 -5 0 -7 5 -3 12 5 8
2 9 -10 5 -10 -4 -19 -1 -22 8 -4 8 -9 13 -13 11 -4 -3 -13 -1 -21 4 -8 5 -23
4 -34 -1 -20 -10 -20 -10 -2 5 10 9 23 13 29 9 6 -3 7 -1 3 6 -4 6 -16 9 -27
6 -10 -4 -19 -2 -19 3 0 5 -6 9 -12 9 -7 0 -17 2 -23 3 -21 5 -36 -1 -29 -12
4 -6 3 -8 -4 -4 -6 3 -9 16 -7 27 3 15 0 19 -11 15 -8 -3 -13 -2 -11 2 6 9
-19 33 -26 25 -3 -3 -3 -11 0 -19 3 -8 0 -14 -6 -14 -6 0 -10 3 -9 8 0 4 -2
15 -6 24 -6 14 -13 15 -34 7 -22 -8 -25 -8 -14 2 6 7 34 13 61 13 27 0 48 3
46 6 -2 3 -225 7 -494 7 -371 1 -491 -1 -491 -10 0 -8 -3 -8 -8 -2 -11 16 -52
18 -52 3 0 -8 -3 -9 -8 -3 -10 15 -99 14 -121 -1z m93 -5 c-2 -5 -12 -5 -22
-2 -15 6 -15 5 -3 -10 9 -11 10 -17 2 -17 -6 0 -11 5 -11 11 0 8 -5 7 -15 -1
-12 -10 -19 -10 -27 -2 -9 9 -9 12 1 12 7 0 10 4 7 8 -2 4 13 8 34 8 21 0 37
-3 34 -7z m61 1 c3 -5 1 -10 -4 -10 -6 0 -11 5 -11 10 0 6 2 10 4 10 3 0 8 -4
11 -10z m-31 -18 c2 -4 -4 -8 -14 -8 -10 0 -16 4 -14 8 3 4 9 8 14 8 5 0 11
-4 14 -8z m-319 -162 c-3 -5 -12 -10 -18 -10 -7 0 -6 4 3 10 19 12 23 12 15 0z
m1580 0 c3 -6 -1 -7 -9 -4 -18 7 -21 14 -7 14 6 0 13 -4 16 -10z m-1684 -54
c-5 -12 -7 -29 -6 -38 2 -10 -1 -18 -7 -18 -6 0 -8 6 -5 14 3 8 3 17 0 20 -7
7 -82 -67 -77 -76 3 -4 -6 -5 -18 -3 -21 4 -22 3 -5 -9 9 -7 17 -17 17 -21 0
-4 -6 -2 -14 4 -10 9 -17 6 -29 -13 -9 -13 -14 -32 -13 -42 2 -11 1 -13 -1 -6
-7 21 -32 -5 -26 -27 3 -10 0 -22 -5 -25 -6 -4 -8 3 -4 16 5 21 5 21 -18 -2
-13 -13 -25 -32 -25 -42 -1 -10 -10 -25 -21 -33 -10 -8 -15 -15 -10 -15 5 0 3
-7 -4 -15 -7 -8 -17 -12 -22 -9 -5 3 -8 0 -7 -7 2 -8 -3 -24 -10 -37 -10 -19
-10 -26 1 -40 11 -15 11 -15 -3 -5 -9 7 -19 10 -22 6 -10 -9 -9 -25 1 -19 4 2
9 -5 9 -17 2 -20 1 -20 -8 -4 -12 21 -26 22 -26 2 0 -8 4 -15 9 -15 4 0 8 -5
8 -11 0 -8 -4 -8 -14 0 -10 8 -16 9 -21 1 -3 -5 -2 -10 4 -10 14 0 7 -30 -9
-40 -8 -5 -11 -12 -7 -16 3 -4 12 -3 20 2 7 5 5 2 -4 -7 -12 -11 -15 -20 -8
-28 6 -8 6 -8 -3 -1 -18 15 -19 73 -2 66 8 -3 11 0 7 9 -3 8 -10 12 -17 8 -6
-4 -5 1 3 10 7 9 10 17 6 17 -5 0 0 9 10 20 10 11 15 20 11 20 -4 0 -4 6 1 13
4 6 8 18 9 24 1 7 16 27 33 44 17 17 29 34 26 38 -2 5 5 18 16 30 11 12 18 25
15 29 -2 4 2 16 10 27 8 10 14 14 14 7 0 -6 7 -9 15 -6 8 4 13 15 11 27 -3 24
32 79 46 71 4 -3 8 -1 8 4 0 13 99 108 110 105 8 -2 47 36 43 43 -2 2 -3 10
-3 17 0 8 3 8 9 -2 5 -8 6 -24 2 -35z m74 24 c-3 -5 -12 -10 -18 -10 -7 0 -6
4 3 10 19 12 23 12 15 0z m1717 -44 c4 3 9 1 12 -4 3 -6 -1 -9 -10 -8 -9 1
-21 11 -26 22 -9 18 -8 18 5 2 8 -10 16 -15 19 -12z m56 -11 c-3 -3 -9 2 -12
12 -6 14 -5 15 5 6 7 -7 10 -15 7 -18z m-1811 9 c-3 -3 -12 -4 -19 -1 -8 3 -5
6 6 6 11 1 17 -2 13 -5z m-67 -38 c0 -3 -4 -8 -10 -11 -5 -3 -10 -1 -10 4 0 6
5 11 10 11 6 0 10 -2 10 -4z m1860 -6 c8 -5 11 -10 5 -10 -5 0 -17 5 -25 10
-8 5 -10 10 -5 10 6 0 17 -5 25 -10z m95 -36 c0 -10 -4 -25 -9 -31 -5 -8 -4
-13 3 -13 6 0 14 7 18 15 5 14 8 14 24 -1 14 -13 16 -20 8 -31 -6 -7 -17 -13
-23 -13 -6 0 -4 5 4 10 13 9 13 10 0 11 -8 1 -19 2 -25 4 -5 1 -14 3 -19 3 -5
1 -4 8 2 15 7 8 7 18 2 27 -8 13 -10 12 -10 -2 0 -22 -13 -29 -30 -16 -12 8
-12 9 3 4 15 -5 22 8 18 36 0 3 7 5 17 4 9 -2 17 -11 17 -22z m-1972 1 c-3 -9
-8 -14 -10 -11 -3 3 -2 9 2 15 9 16 15 13 8 -4z m1892 -5 c3 -6 -1 -7 -9 -4
-18 7 -21 14 -7 14 6 0 13 -4 16 -10z m-1950 -48 c-3 -3 -11 0 -18 7 -9 10 -8
11 6 5 10 -3 15 -9 12 -12z m2085 -106 c0 -3 -4 -8 -10 -11 -5 -3 -10 -1 -10
4 0 6 5 11 10 11 6 0 10 -2 10 -4z m30 -10 c-1 -5 4 -13 12 -18 11 -8 11 -9 0
-6 -8 2 -13 7 -12 12 1 5 -4 13 -12 18 -11 8 -11 9 0 6 8 -2 13 -7 12 -12z
m81 -33 c13 -16 12 -17 -3 -4 -10 7 -18 15 -18 17 0 8 8 3 21 -13z m-21 -67
c0 -12 -5 -7 -19 24 -11 24 -11 24 3 6 9 -11 16 -24 16 -30z m99 -83 c-1 -5 0
-10 1 -13 2 -3 3 -19 4 -36 2 -28 0 -31 -16 -20 -10 6 -14 12 -8 14 5 2 10 8
10 13 0 6 -4 8 -8 5 -13 -8 -11 28 2 36 14 10 16 10 15 1z m-6 -114 c-8 -8
-13 -7 -18 2 -5 8 -4 10 3 5 15 -9 16 6 2 22 -5 7 -2 5 7 -3 12 -11 14 -18 6
-26z m-2548 -939 c-3 -5 2 -11 12 -11 17 -1 17 -2 0 -6 -9 -2 -15 -8 -12 -13
3 -5 1 -11 -3 -14 -5 -3 -8 7 -6 22 2 32 2 32 10 32 3 0 2 -4 -1 -10z m2542
-30 c-1 -11 -5 -20 -9 -20 -10 0 -10 4 -2 24 8 22 13 20 11 -4z m-2504 -20 c3
-11 1 -18 -4 -14 -5 3 -9 12 -9 20 0 20 7 17 13 -6z m2478 -33 c-10 -9 -11 -8
-5 6 3 10 9 15 12 12 3 -3 0 -11 -7 -18z m42 -32 c-7 -21 -12 -19 -10 4 0 11
5 18 9 15 4 -3 5 -11 1 -19z m-2479 -21 c3 -8 2 -12 -4 -9 -6 3 -10 10 -10 16
0 14 7 11 14 -7z m2317 -141 c-12 -20 -14 -14 -5 12 4 9 9 14 11 11 3 -2 0
-13 -6 -23z m-1 -37 c0 -2 -7 -7 -16 -10 -8 -3 -12 -2 -9 4 6 10 25 14 25 6z
m-2149 -81 c5 4 6 -1 2 -10 -5 -13 -7 -14 -14 -3 -5 7 -8 18 -8 23 0 6 3 4 6
-3 2 -6 9 -10 14 -7z m2025 -56 c-9 -13 -16 -18 -16 -12 0 7 5 15 11 18 6 4 8
14 4 24 -5 12 -3 13 6 4 9 -9 8 -17 -5 -34z m27 -6 c-4 -11 -3 -14 5 -9 8 5
10 2 5 -9 -5 -13 -8 -14 -15 -3 -6 9 -8 6 -6 -11 2 -18 -5 -30 -27 -45 -17
-12 -32 -25 -35 -31 -2 -5 -15 -19 -29 -30 -14 -10 -29 -23 -32 -28 -4 -5 -10
-4 -14 2 -4 7 -2 18 4 25 6 7 8 16 4 20 -4 4 1 4 11 0 15 -6 17 -4 10 7 -13
21 -14 39 -2 39 6 0 8 -7 5 -15 -4 -8 -2 -17 3 -20 6 -4 10 -1 10 4 0 6 8 11
18 11 15 1 15 2 -3 16 -20 16 -19 16 4 9 14 -4 21 -3 18 2 -4 6 4 16 17 23 13
7 29 23 35 36 12 27 24 33 14 7z m-1943 1 c0 -8 -19 -13 -24 -6 -3 5 1 9 9 9
8 0 15 -2 15 -3z m1887 -14 c-2 -11 -6 -22 -9 -26 -4 -3 -5 2 -3 13 2 10 4 21
4 26 1 4 3 7 6 7 3 0 4 -9 2 -20z m-1862 -39 c3 -5 2 -12 -3 -15 -5 -3 -9 1
-9 9 0 17 3 19 12 6z m44 -68 c-4 -22 2 -33 14 -27 7 5 6 0 -3 -11 -14 -17
-13 -17 9 -10 21 6 22 5 10 -8 -8 -8 -18 -14 -24 -13 -20 3 -35 18 -29 28 5 8
1 9 -10 5 -10 -4 -15 -3 -11 3 3 6 0 10 -7 10 -9 0 -9 3 2 10 11 7 19 5 29 -8
12 -15 12 -15 6 6 -4 13 -2 22 4 22 6 0 10 -3 10 -7z m35 -1 c3 -5 -1 -9 -9
-9 -8 0 -12 4 -9 9 3 4 7 8 9 8 2 0 6 -4 9 -8z m1666 4 c0 -2 -7 -7 -16 -10
-8 -3 -12 -2 -9 4 6 10 25 14 25 6z m-1629 -33 c13 -16 12 -17 -3 -4 -17 13
-22 21 -14 21 2 0 10 -8 17 -17z m1513 -68 c-4 -8 -11 -15 -16 -15 -6 0 -5 6
2 15 7 8 14 15 16 15 2 0 1 -7 -2 -15z m-1523 -12 c13 -16 12 -17 -3 -4 -17
13 -22 21 -14 21 2 0 10 -8 17 -17z m144 7 c-3 -5 -12 -10 -18 -10 -7 0 -6 4
3 10 19 12 23 12 15 0z m1269 -26 c3 -8 2 -12 -4 -9 -6 3 -10 10 -10 16 0 14
7 11 14 -7z m-1240 -21 c4 -11 1 -11 -14 -3 -24 13 -25 17 -5 17 8 0 16 -6 19
-14z m1252 -11 c-2 -4 -1 -14 5 -22 7 -13 9 -12 9 3 0 18 15 23 25 8 3 -6 -4
-15 -15 -21 -11 -6 -20 -7 -20 -3 0 4 -5 0 -11 -10 -6 -9 -14 -15 -20 -12 -5
4 -9 0 -9 -7 0 -9 -3 -9 -10 2 -7 11 -10 11 -10 2 0 -7 -5 -10 -10 -7 -6 3
-13 0 -16 -8 -5 -15 -64 -19 -64 -5 0 5 5 8 11 8 8 0 8 4 0 14 -9 11 -9 16 0
22 7 4 10 3 7 -2 -3 -5 3 -17 13 -28 18 -18 18 -18 14 10 -4 23 -3 26 5 12 6
-9 17 -15 25 -12 8 4 12 11 8 18 -4 6 1 5 10 -3 18 -15 23 -3 7 17 -7 9 -7 9
2 2 7 -5 18 -10 25 -10 20 0 16 20 -4 21 -15 0 -15 2 2 9 26 11 27 11 21 2z
m-73 -27 c-3 -9 -8 -14 -10 -11 -3 3 -2 9 2 15 9 16 15 13 8 -4z m-1022 -38
c-8 -8 -14 -7 -23 2 -11 10 -9 11 6 5 15 -6 17 -4 11 6 -6 9 -4 11 4 5 9 -5
10 -10 2 -18z m889 3 c0 -5 -2 -10 -4 -10 -3 0 -8 5 -11 10 -3 6 -1 10 4 10 6
0 11 -4 11 -10z m28 -25 c-3 -3 -9 2 -12 12 -6 14 -5 15 5 6 7 -7 10 -15 7
-18z m-939 6 c10 -7 7 -9 -12 -8 -14 1 -23 5 -20 10 6 9 15 9 32 -2z m51 5 c0
-3 -4 -8 -10 -11 -5 -3 -10 -1 -10 4 0 6 5 11 10 11 6 0 10 -2 10 -4z"/>
<path d="M319 2283 l-34 -38 38 34 c34 33 42 41 34 41 -2 0 -19 -17 -38 -37z"/>
<path d="M219 2186 c-21 -34 -20 -50 2 -30 10 9 17 19 14 22 -2 3 3 10 11 17
14 10 14 12 2 12 -9 0 -21 -10 -29 -21z"/>
<path d="M159 2103 c-1 -5 -1 -12 0 -17 1 -5 -6 -17 -16 -28 -18 -20 -27 -52
-12 -42 5 3 7 9 4 13 -2 5 4 16 15 26 10 9 18 25 17 36 -1 19 -6 26 -8 12z"/>
<path d="M87 1976 c-10 -8 -19 -20 -21 -28 -1 -7 -6 -20 -11 -28 -8 -13 -7
-13 8 -1 9 7 14 17 11 22 -3 5 -1 9 3 9 5 0 14 9 21 20 14 23 13 24 -11 6z"/>
<path d="M2350 2206 c0 -2 7 -7 16 -10 8 -3 12 -2 9 4 -6 10 -25 14 -25 6z"/>
<path d="M2269 318 c-9 -17 -8 -18 10 -9 26 15 34 28 15 28 -8 0 -20 -9 -25
-19z"/>
<path d="M2205 255 c-39 -32 -29 -32 15 0 19 14 30 25 24 25 -5 -1 -22 -12
-39 -25z"/>
<path d="M435 221 c-3 -5 -2 -12 3 -15 5 -3 9 1 9 9 0 17 -3 19 -12 6z"/>
<path d="M1901 2581 c-1 -9 -9 -11 -23 -8 -22 6 -22 5 2 -15 14 -11 24 -24 23
-29 -2 -4 7 -7 18 -6 19 1 19 2 3 14 -10 7 -13 13 -8 13 6 0 11 7 11 15 0 8
-4 12 -8 9 -4 -2 -10 2 -12 8 -4 10 -6 10 -6 -1z"/>
<path d="M1830 2569 c0 -5 5 -7 10 -4 6 3 10 8 10 11 0 2 -4 4 -10 4 -5 0 -10
-5 -10 -11z"/>
<path d="M655 2530 c-4 -7 -1 -16 6 -21 17 -10 26 8 11 23 -6 6 -12 6 -17 -2z"/>
<path d="M480 2451 c-36 -26 -43 -43 -25 -58 6 -4 7 -4 3 1 -8 9 50 52 64 48
7 -2 5 25 -3 31 -2 3 -20 -7 -39 -22z m30 3 c-8 -8 -23 -20 -34 -25 -13 -7 -9
-1 9 15 34 29 43 33 25 10z"/>
<path d="M539 133 c-8 -9 -9 -14 -3 -10 6 3 16 -3 24 -13 8 -10 17 -17 22 -14
4 3 8 0 8 -6 0 -6 5 -8 10 -5 6 3 10 0 10 -7 0 -10 2 -10 9 1 7 11 9 11 13 0
3 -8 9 -10 14 -6 10 9 -16 28 -28 21 -4 -3 -8 -1 -8 5 0 5 -13 19 -29 30 -27
19 -30 20 -42 4z m61 -30 c0 -7 -39 17 -46 28 -3 6 5 3 20 -6 14 -10 26 -19
26 -22z"/>
</g>
</svg>
